<svg width="200" height="60" viewBox="0 0 200 60" fill="none" xmlns="http://www.w3.org/2000/svg">
  <!-- KAYA Logo - Deep Teal Navy with Warm Amber Accent -->
  
  <!-- Background Circle (Optional - for app icon) -->
  <circle cx="30" cy="30" r="28" fill="#0B3D4C" opacity="0.1"/>
  
  <!-- K Letter -->
  <path d="M10 15 L10 45 L14 45 L14 31 L26 45 L31 45 L18 30 L30 15 L25 15 L14 28 L14 15 Z" fill="#0B3D4C"/>
  
  <!-- A Letter -->
  <path d="M35 45 L39 45 L41 38 L52 38 L54 45 L58 45 L48 15 L45 15 Z M42 34 L46.5 20 L51 34 Z" fill="#0B3D4C"/>
  
  <!-- Y Letter with Amber Accent -->
  <path d="M62 15 L66 15 L72 26 L78 15 L82 15 L74 30 L74 45 L70 45 L70 30 Z" fill="#FF8A3D"/>
  
  <!-- A Letter -->
  <path d="M86 45 L90 45 L92 38 L103 38 L105 45 L109 45 L99 15 L96 15 Z M93 34 L97.5 20 L102 34 Z" fill="#0B3D4C"/>
  
  <!-- Tagline/Subtitle -->
  <text x="10" y="56" font-family="Plus Jakarta Sans, sans-serif" font-size="8" fill="#5C5C5C" letter-spacing="2">JOB MARKETPLACE</text>
  
  <!-- Accent Dot -->
  <circle cx="113" cy="42" r="2.5" fill="#FF8A3D"/>
</svg>
